# xmcd CD database file
#
# Track frame offsets:
#	151
#	35644
#	70092
#	120592
#	144930
#	185013
#	218842
#	246920
#
# Disc length: 3670 seconds
#
# Revision: 0
# Processed by: cddbd v1.5.2PL0 Copyright (c) Steve Scherf et al.
# Submitted via: CDex 1.51
#
DISCID=740e5408
DTITLE=Roy Powell - North by Northwest
DYEAR=2001
DGENRE=Jazz
TTITLE0=Social Intelligence
TTITLE1=Paws
TTITLE2=Vemod
TTITLE3=Borrowed Time
TTITLE4=Oxymoron
TTITLE5=Somewhere
TTITLE6=Scramble
TTITLE7=A Simple Answer
EXTD=YEAR: 2001
EXTT0=
EXTT1=
EXTT2=
EXTT3=
EXTT4=
EXTT5=
EXTT6=
EXTT7=
PLAYORDER=
